<svg id="Layer_1" data-name="Layer 1" xmlns="http://www.w3.org/2000/svg" viewBox="0 0 121.98 124.14"><defs><style>.cls-1{fill:#fff;}.cls-2{fill:#7ddcf9;}.cls-3{fill:#fdef41;}.cls-10,.cls-3,.cls-4,.cls-6,.cls-7,.cls-9{fill-rule:evenodd;}.cls-4{fill:#e7b82b;}.cls-5,.cls-7{fill:#d0e39c;}.cls-6,.cls-8{fill:#77a46f;}.cls-9{fill:#b5d88c;}.cls-10{fill:#608657;}</style></defs><path class="cls-1" d="M115.82,36.86a15.16,15.16,0,0,0-4.66-4.18,58.26,58.26,0,0,0-6.61-9.8l.15-2.55-2.54-.16a58,58,0,0,0-90.34,7.55L1.73,34.14l3.79,6A57.58,57.58,0,0,0,2,60c0,.13,0,.27,0,.4A9.94,9.94,0,0,0,1.89,65a8.8,8.8,0,0,0,.49,1.59,57.5,57.5,0,0,0,12.88,30.3,21.21,21.21,0,0,0,25.62,19.6,19.61,19.61,0,0,0,2.82-.82A57.73,57.73,0,0,0,55,117.78l3.61,5.68,9.49-6a58,58,0,0,0,49.33-65.65A14.68,14.68,0,0,0,118.52,48,14.91,14.91,0,0,0,115.82,36.86Z"/><circle class="cls-2" cx="60" cy="60" r="55"/><path class="cls-3" d="M102.09,55.93a10.36,10.36,0,1,0-8.63-11.84A10.36,10.36,0,0,0,102.09,55.93Z"/><path class="cls-4" d="M102.3,49.63l.57-3.6a6.14,6.14,0,0,1-2.79-1.93,3.29,3.29,0,0,1-.59-2.52,3,3,0,0,1,1.46-2.2,4.84,4.84,0,0,1,3.06-.66l.14-.84,1.53.24-.13.84a5.23,5.23,0,0,1,2.54,1.36,3.49,3.49,0,0,1,1,2.27l-2.73-.14a1.88,1.88,0,0,0-1.06-1.58l-.53,3.36a7.68,7.68,0,0,1,3.25,2,3.08,3.08,0,0,1,.56,2.43A3.45,3.45,0,0,1,107,51.1a5.79,5.79,0,0,1-3.44.82l-.25,1.61-1.54-.24L102,51.7a5.48,5.48,0,0,1-2.79-1.57,4.3,4.3,0,0,1-1-2.83l2.79.16a2.73,2.73,0,0,0,.45,1.29,3,3,0,0,0,.92.88Zm-.18,6.09a10.16,10.16,0,1,0-6.62-4,10.09,10.09,0,0,0,6.62,4Zm8.65-.32a12,12,0,1,0-8.94,2.16,12,12,0,0,0,8.94-2.16Zm-7-14.81a2.12,2.12,0,0,0-1.07.44,1.37,1.37,0,0,0-.51.86,1.3,1.3,0,0,0,.2.9,2.33,2.33,0,0,0,.91.79l.47-3Zm.1,9.42a2.51,2.51,0,0,0,1.39-.41,1.55,1.55,0,0,0,.68-1.05,1.34,1.34,0,0,0-.27-1,2.81,2.81,0,0,0-1.27-.86Z"/><rect class="cls-5" x="47.09" y="42.07" width="72.28" height="32.38" transform="translate(20.16 137.9) rotate(-86.61)"/><path class="cls-6" d="M97.26,95.29l.56-9.57,3.14-53,.57-9.57L92,22.57l-13.18-.78-9.57-.56-.57,9.57-3.14,53-.56,9.57,9.57.56,13.18.78,9.57.57Zm-1.07-9.53a9.62,9.62,0,0,0-8.27,7.35l-13.46-.8A9.59,9.59,0,0,0,67.12,84l3.15-53.29a9.57,9.57,0,0,0,8.27-7.34l13.46.8a9.61,9.61,0,0,0,7.34,8.27Z"/><path class="cls-6" d="M95.83,59A12.62,12.62,0,1,0,82.49,70.86,12.61,12.61,0,0,0,95.83,59Z"/><path class="cls-6" d="M84.78,81a3,3,0,1,0-3.18,2.82A3,3,0,0,0,84.78,81Z"/><path class="cls-6" d="M87.45,36a3,3,0,1,0-3.19,2.82A3,3,0,0,0,87.45,36Z"/><path class="cls-7" d="M83.67,59.11l3.89.23a3.14,3.14,0,0,1-.84,1.07,3,3,0,0,1-1.33.61l.11,3a4.53,4.53,0,0,0,2.91-1.41,5.84,5.84,0,0,0,1.38-3.12l1.72.1.1-1.66-1.74-.1a6.15,6.15,0,0,0-1.23-3.58,3.69,3.69,0,0,0-2.76-1.42,3.28,3.28,0,0,0-2.53.85,7.9,7.9,0,0,0-1.78,3.66l-3.64-.22a2,2,0,0,1,1.57-1.29l-.13-2.92a3.72,3.72,0,0,0-2.32,1.24A5.65,5.65,0,0,0,75.87,57L75,56.92l-.1,1.66.91.06a5.29,5.29,0,0,0,1,3.2,3.31,3.31,0,0,0,2.5,1.32,3.52,3.52,0,0,0,2.62-.88,6.73,6.73,0,0,0,1.77-3.17Zm-5.3.75a2.19,2.19,0,0,1-.57-1.1L81,59a2.41,2.41,0,0,1-.75,1,1.39,1.39,0,0,1-.93.31,1.53,1.53,0,0,1-1-.45Zm5.8-2.39A3,3,0,0,1,85,56a1.44,1.44,0,0,1,1.09-.4,1.62,1.62,0,0,1,1.19.62,2.67,2.67,0,0,1,.58,1.44Z"/><rect class="cls-5" x="54.56" y="18.68" width="35.99" height="80.35" transform="translate(-9.13 13.51) rotate(-10.01)"/><path class="cls-6" d="M97.26,95.29,95.4,84.8,85.14,26.66,83.29,16.17,72.79,18,58.34,20.57,47.85,22.42l1.85,10.5L60,91.05l1.85,10.5,10.5-1.85,14.45-2.56,10.5-1.85Zm-3.61-10A10.66,10.66,0,0,0,86.6,95.34l-14.76,2.6a10.68,10.68,0,0,0-10.07-7L51.45,32.45a10.65,10.65,0,0,0,7-10.07l14.76-2.6a10.65,10.65,0,0,0,10.07,7Z"/><path class="cls-6" d="M86.37,56.42A14,14,0,1,0,75,72.68,14,14,0,0,0,86.37,56.42Z"/><path class="cls-6" d="M80.09,83.08A3.35,3.35,0,1,0,77.38,87,3.34,3.34,0,0,0,80.09,83.08Z"/><path class="cls-6" d="M71.37,33.69a3.35,3.35,0,1,0-2.71,3.87A3.34,3.34,0,0,0,71.37,33.69Z"/><path class="cls-7" d="M73.24,59.66l4.27-.75a3.42,3.42,0,0,1-.64,1.37,3.14,3.14,0,0,1-1.27,1l.89,3.2a5.06,5.06,0,0,0,2.78-2.27A6.54,6.54,0,0,0,80,58.48l1.88-.34-.32-1.82-1.91.34a6.79,6.79,0,0,0-2.25-3.55A4.1,4.1,0,0,0,74,52.28a3.67,3.67,0,0,0-2.52,1.57,9,9,0,0,0-1,4.42l-4,.7a2.25,2.25,0,0,1,1.36-1.8L67,54.05A4.12,4.12,0,0,0,64.81,56a6.13,6.13,0,0,0-.55,3.38l-1,.18.32,1.82,1-.18a5.84,5.84,0,0,0,1.92,3.2,3.66,3.66,0,0,0,3,.79,3.86,3.86,0,0,0,2.6-1.64,7.27,7.27,0,0,0,1.1-3.88Zm-5.53,2.18a2.4,2.4,0,0,1-.91-1l3.53-.63a2.75,2.75,0,0,1-.53,1.34,1.55,1.55,0,0,1-.93.56,1.62,1.62,0,0,1-1.16-.23Zm5.65-4.08A3.43,3.43,0,0,1,73.83,56a1.62,1.62,0,0,1,1.09-.71,1.79,1.79,0,0,1,1.43.36,3,3,0,0,1,1,1.41Z"/><rect class="cls-5" x="42.2" y="14.91" width="40.48" height="90.37" transform="translate(-17.13 25.75) rotate(-20.56)"/><path class="cls-6" d="M97.26,95.29,93.05,84.07,69.73,21.9,65.52,10.68,54.3,14.89l-15.45,5.8-11.23,4.2,4.21,11.23L55.15,98.28l4.21,11.22,11.22-4.2L86,99.5l11.23-4.21ZM91.2,85a12,12,0,0,0-5.72,12.58L69.7,103.45a12,12,0,0,0-12.59-5.72L33.68,35.24A12,12,0,0,0,39.4,22.65l15.78-5.92a12,12,0,0,0,12.59,5.72Z"/><circle class="cls-8" cx="62.44" cy="60.09" r="15.78" transform="translate(-18.97 30.39) rotate(-23.86)"/><path class="cls-6" d="M75.76,85.33a3.76,3.76,0,1,0-2.2,4.84A3.76,3.76,0,0,0,75.76,85.33Z"/><path class="cls-6" d="M56,32.51a3.76,3.76,0,1,0-2.2,4.84A3.75,3.75,0,0,0,56,32.51Z"/><path class="cls-7" d="M63.37,60.84l4.56-1.71a3.88,3.88,0,0,1-.42,1.65,3.51,3.51,0,0,1-1.2,1.37L68,65.5a5.73,5.73,0,0,0,2.61-3.08,7.38,7.38,0,0,0,0-4.27l2-.76-.73-2-2,.77a7.77,7.77,0,0,0-3.22-3.47,4.63,4.63,0,0,0-3.88-.22,4.09,4.09,0,0,0-2.46,2.26,10,10,0,0,0-.18,5.08l-4.27,1.6a2.54,2.54,0,0,1,1.14-2.27L55.3,55.92a4.59,4.59,0,0,0-2,2.59,6.86,6.86,0,0,0,.09,3.85l-1.07.41L53,64.71l1.07-.4a6.51,6.51,0,0,0,2.78,3.14,4.12,4.12,0,0,0,3.52.26A4.47,4.47,0,0,0,63,65.36a8.36,8.36,0,0,0,.41-4.52ZM57.7,64.38a2.64,2.64,0,0,1-1.22-1L60.26,62a3,3,0,0,1-.32,1.59,1.76,1.76,0,0,1-.91.82,1.85,1.85,0,0,1-1.33,0Zm5.41-5.66a3.71,3.71,0,0,1,.16-2,1.83,1.83,0,0,1,1-1,2,2,0,0,1,1.66.11,3.27,3.27,0,0,1,1.4,1.34Z"/><rect class="cls-5" x="29.2" y="15.24" width="44.74" height="99.88" transform="matrix(0.84, -0.54, 0.54, 0.84, -26.94, 37.89)"/><path class="cls-6" d="M97.26,95.29,90.14,84.12,50.73,22.21,43.62,11,32.44,18.15,17.05,28,5.88,35.06,13,46.24l39.41,61.9,7.12,11.18,11.17-7.12,15.39-9.8,11.18-7.11Zm-8.91-9.8A13.24,13.24,0,0,0,85,100.41l-15.72,10A13.26,13.26,0,0,0,54.4,107.1L14.78,44.87A13.26,13.26,0,0,0,18.1,30l15.71-10a13.26,13.26,0,0,0,14.92,3.32Z"/><path class="cls-6" d="M66.28,55.81a17.45,17.45,0,1,0-5.35,24.08A17.44,17.44,0,0,0,66.28,55.81Z"/><path class="cls-6" d="M71.74,89.42a4.16,4.16,0,1,0-1.28,5.74A4.17,4.17,0,0,0,71.74,89.42Z"/><path class="cls-6" d="M38.25,36.83A4.15,4.15,0,1,0,37,42.57,4.16,4.16,0,0,0,38.25,36.83Z"/><path class="cls-7" d="M52.74,65.77l4.55-2.89a4.31,4.31,0,0,1-.08,1.88,4,4,0,0,1-1,1.75l2.54,3.26a6.28,6.28,0,0,0,2.12-3.93,8.21,8.21,0,0,0-1-4.62l2-1.28L60.66,58l-2,1.29a8.63,8.63,0,0,0-4.28-3,5.11,5.11,0,0,0-4.24.65,4.52,4.52,0,0,0-2.15,3q-.37,1.88,1,5.54l-4.24,2.7a2.81,2.81,0,0,1,.71-2.72l-2.51-3.16a5.12,5.12,0,0,0-1.58,3.27,7.55,7.55,0,0,0,1,4.14l-1.07.68,1.23,1.94,1.07-.68a7.22,7.22,0,0,0,3.72,2.76,4.51,4.51,0,0,0,3.87-.53,4.86,4.86,0,0,0,2.22-3.12,9.23,9.23,0,0,0-.59-5ZM47.42,70.9a3,3,0,0,1-1.54-.76l3.77-2.4a3.5,3.5,0,0,1,0,1.79,2,2,0,0,1-.81,1.09,2,2,0,0,1-1.44.28ZM52,63.54a4.28,4.28,0,0,1-.29-2.25A2,2,0,0,1,52.59,60a2.21,2.21,0,0,1,1.82-.27,3.6,3.6,0,0,1,1.82,1.14Z"/><path class="cls-3" d="M39.73,111.11A15.72,15.72,0,1,0,21.07,99,15.71,15.71,0,0,0,39.73,111.11Z"/><path class="cls-4" d="M36.61,102.07l-1.16-5.42a9.42,9.42,0,0,1-5-1.21,5,5,0,0,1-2.21-3.26,4.69,4.69,0,0,1,.88-3.91,7.4,7.4,0,0,1,4-2.59l-.27-1.27,2.31-.49.27,1.27a7.82,7.82,0,0,1,4.33.54,5.24,5.24,0,0,1,2.58,2.7l-3.94,1.28A2.89,2.89,0,0,0,36,88.05l1.08,5q4,0,5.67,1.06A4.65,4.65,0,0,1,44.9,97.3a5.23,5.23,0,0,1-.9,4.32,8.85,8.85,0,0,1-4.43,3l.52,2.41-2.31.5-.51-2.39a8.41,8.41,0,0,1-4.79-.7,6.49,6.49,0,0,1-3-3.45l4-1.28a4.13,4.13,0,0,0,1.34,1.58,4.39,4.39,0,0,0,1.78.75Zm3,8.72a15.39,15.39,0,1,0-11.58-2.13,15.32,15.32,0,0,0,11.58,2.13Zm12.08-5.14a18.22,18.22,0,1,0-11.49,7.91,18.21,18.21,0,0,0,11.49-7.91Zm-18-17.16a3.13,3.13,0,0,0-1.28,1.21,2,2,0,0,0-.25,1.49,2,2,0,0,0,.76,1.16,3.5,3.5,0,0,0,1.73.62l-1-4.48ZM39,101.79a3.78,3.78,0,0,0,1.75-1.35,2.3,2.3,0,0,0,.39-1.85,2.07,2.07,0,0,0-1-1.35,4.37,4.37,0,0,0-2.27-.52Z"/><path class="cls-9" d="M50.54,18.47l-1.77.67L50.56,22l.17.26,4.82,7.57L64.92,44.5a15.49,15.49,0,0,1,1.67.36l-10-16.39-4.17-6.86-1.91-3.14ZM77.78,63.83c0,.2-.11.41-.17.61L81.13,70l.52.82,8.49,13.33.68,1.06.21-.13L82.4,70.86l-.78-1.29L78,63.65l-.15-.24Z"/><path class="cls-10" d="M91,85.05l-.21.13.71,1.12.58.9,5.15,8.09-5-8.19-.56-.92L91,85.05ZM48.77,19.14l1.77-.67L49.47,16.7l-1.81.68,1.11,1.76ZM66.59,44.86a15.49,15.49,0,0,0-1.67-.36l1.2,1.88,1.46,2.3L69.07,51l2.14,3.35h0l2.15,3.37h0l1.08,1.69,1.16,1.83,1.78,2.79.23.37c.06-.2.12-.41.17-.61l.09-.42-.69-1.14-.86-1.42L76,60.4l-.68-1.11-.42-.7-.08-.12-.53-.88-.72-1.18-1.8-3-.15-.24-2.47-4.07L67.7,46.69l-.49-.81Z"/><path class="cls-9" d="M71.35,20.11l-2.15.38.29.75.24.66,3.08,8.21L78.9,46.34l.06,0a14.28,14.28,0,0,1,1.83,1.13L80.27,46,74.49,29.22l-2.7-7.84-.44-1.27ZM86,62.74c-.12.42-.26.84-.42,1.25l-.06.13L87.79,70l5.26,14,.46,1.24.14,0-.16-.9-5-14.61-2-5.93Z"/><path class="cls-10" d="M93.49,84.36l.16.9-.14,0,.38,1,3.37,9-3.13-9.06-.64-1.87ZM69.2,20.49l2.15-.38-.59-1.73-2.2.39.64,1.72Zm11.59,27A14.28,14.28,0,0,0,79,46.37l-.06,0,0,0,3.35,8.93,1.42,3.79L85.5,64l0,0,0,.12.06-.13c.16-.41.3-.83.42-1.25L85.44,61l-.63-1.84-.58-1.7,0-.09L83,54Z"/><path class="cls-9" d="M93.09,66.14a10.48,10.48,0,0,1-.82.93L95.4,84.8l.19,1,.31,0L93.09,66.14Zm-6-42.23-2.43-.14.51,2.89,1.2,6.82A3,3,0,0,1,87.45,36,3,3,0,0,1,87,37.35l1.68,9.53a12.23,12.23,0,0,1,1.78,1l-3.43-24Zm4.55,34-1-.06.29,1.69.57,0Z"/><path class="cls-10" d="M87,37.35A3,3,0,0,0,87.45,36a3,3,0,0,0-1.11-2.51L87,37.35Zm3.46,10.58a12.23,12.23,0,0,0-1.78-1l1.94,11,1,.06-.1,1.66-.57,0,1.33,7.53a10.48,10.48,0,0,0,.82-.93l-2.6-18.21ZM84.63,23.77l2.43.14-.23-1.64-2.49-.15.29,1.65Zm11.27,62-.31,0,1.67,9.44Z"/><path class="cls-9" d="M52.57,104.23,54,106.41a19.34,19.34,0,0,0,2-5.93,19.08,19.08,0,0,0,.27-3.22,19.51,19.51,0,0,0-3.48-11.14,20,20,0,0,0-3.25-3.62l-.3,0-.34-.06.46.45.05,0a18.15,18.15,0,0,1,5.29,12.83c0,.39,0,.78,0,1.16A18.15,18.15,0,0,1,52.57,104.23Z"/><path class="cls-10" d="M43.38,78.89a18.28,18.28,0,0,1,5.49,3.52l.34.06.3,0-.41-.35a19.4,19.4,0,0,0-5.72-3.26Zm9.19,25.34a18.28,18.28,0,0,1-1.31,2.12l1.14,1.79.25.4A19.3,19.3,0,0,0,54,106.41Z"/><path class="cls-3" d="M8.37,68A6,6,0,1,0,6.6,59.65,6,6,0,0,0,8.37,68Z"/><path class="cls-4" d="M10,64.69l1.15-1.78a3.65,3.65,0,0,1-1-1.69,1.89,1.89,0,0,1,.29-1.47,1.75,1.75,0,0,1,1.29-.82,2.76,2.76,0,0,1,1.78.38l.27-.42.76.5-.27.41a3,3,0,0,1,1,1.33,1.94,1.94,0,0,1,0,1.42l-1.41-.72a1.11,1.11,0,0,0-.19-1.09L12.54,62.4a4.47,4.47,0,0,1,1.25,1.83,1.79,1.79,0,0,1-.28,1.42,2,2,0,0,1-1.41.92,3.41,3.41,0,0,1-2-.38L9.56,67l-.76-.49.51-.79a3.21,3.21,0,0,1-1.1-1.49,2.44,2.44,0,0,1,.12-1.75l1.44.75A1.43,1.43,0,0,0,9.7,64a1.63,1.63,0,0,0,.28.69ZM8.43,67.87a5.89,5.89,0,1,0-2.55-3.72,5.89,5.89,0,0,0,2.55,3.72Zm4.66,1.89a7,7,0,1,0-5.24-1,7,7,0,0,0,5.24,1Zm-.22-9.53a1.18,1.18,0,0,0-.67,0,.81.81,0,0,0-.47.33.74.74,0,0,0-.11.53,1.21,1.21,0,0,0,.3.63l.95-1.47Zm-2.18,5a1.45,1.45,0,0,0,.83.11.89.89,0,0,0,.61-.39.81.81,0,0,0,.11-.63,1.63,1.63,0,0,0-.47-.75Z"/></svg>