<svg version="1" xmlns="http://www.w3.org/2000/svg" width="346.667" height="346.667" viewBox="0 0 260.000000 260.000000"><path d="M109.6 7.6C60 15.8 19.2 54.3 7.9 103.7 5.6 113.7 4.6 138 6 147c1.8 11.7 2.3 13.7 4.7 21.5 12.8 40.7 47 73.1 88.1 83.4 11.6 3 13.6 3.2 28.7 3.6 19.2.5 32.4-1.8 49.8-8.8 33-13.3 59.8-42 71.1-75.9 4.4-12.9 5.8-21.6 6.2-36.8.4-15.9-.8-24.9-5-39.2-2.3-7.7-10-25.5-11.6-26.8-.4-.3-.9-1.2-1.2-2-1.2-3.4-12.9-18-19.5-24.4-17.4-16.9-39.3-28.4-63.2-33.3-9.9-2-34.2-2.4-44.5-.7zm40.5 13.8c23.2 4.4 41.8 14.2 58.6 31.1 26.7 26.9 37.5 62.1 30.8 100-3.8 21-15.7 42.7-31.9 58.3-21.2 20.4-46.8 31-75.7 31.5-30.5.5-56.9-9.9-79.1-31.2-36.1-34.4-44.7-89.6-20.8-133C38 67 44 59.2 52.7 50.9c17.8-17 39.1-27.3 62.8-30.4 2.8-.4 5.1-.8 5.2-.9.9-.8 22.5.5 29.4 1.8z"/><path d="M121.5 62c-5.3 2.9-9.1 7.4-10.5 12.5-4.6 16.6 12.5 30.5 28 22.8 9.8-4.9 13.5-16.8 8.4-26.8-4.6-8.9-17.4-13.1-25.9-8.5z"/><path d="M49.4 65.8c.4.9 14.9 37.4 32.3 80.9l31.7 79.3h31.2l7.2-17.3c26.5-64 59.2-143.6 59.2-144.2 0-.2-9.1-.3-20.1-.2-16.8.2-20.3.5-21 1.7-.5.8-9.5 24-20 51.5-17.5 45.9-20.8 54.1-20.9 52.4 0-.7-1.9-5.9-15.4-41.9-5.9-15.7-11.1-29.4-11.6-30.5-.5-1.1-3.2-8.3-6.1-16-2.8-7.7-5.5-14.8-6-15.7-.8-1.5-3.2-1.7-21-1.7-18.7-.1-20.1.1-19.5 1.7z"/></svg>